<svg xmlns="http://www.w3.org/2000/svg" viewBox="0 0 30 20">
  <rect width="30" height="20" fill="#b22234"/>
  <g fill="#ffffff">
    <rect y="1.54" width="30" height="1.54"/>
    <rect y="4.62" width="30" height="1.54"/>
    <rect y="7.69" width="30" height="1.54"/>
    <rect y="10.77" width="30" height="1.54"/>
    <rect y="13.85" width="30" height="1.54"/>
    <rect y="16.92" width="30" height="1.54"/>
  </g>
  <rect width="14" height="10.77" fill="#3c3b6e"/>
  <g fill="#ffffff">
    <circle cx="2" cy="1.8" r="0.7"/><circle cx="5" cy="1.8" r="0.7"/><circle cx="8" cy="1.8" r="0.7"/><circle cx="11" cy="1.8" r="0.7"/>
    <circle cx="3.5" cy="3.6" r="0.7"/><circle cx="6.5" cy="3.6" r="0.7"/><circle cx="9.5" cy="3.6" r="0.7"/>
    <circle cx="2" cy="5.4" r="0.7"/><circle cx="5" cy="5.4" r="0.7"/><circle cx="8" cy="5.4" r="0.7"/><circle cx="11" cy="5.4" r="0.7"/>
    <circle cx="3.5" cy="7.2" r="0.7"/><circle cx="6.5" cy="7.2" r="0.7"/><circle cx="9.5" cy="7.2" r="0.7"/>
    <circle cx="2" cy="9" r="0.7"/><circle cx="5" cy="9" r="0.7"/><circle cx="8" cy="9" r="0.7"/><circle cx="11" cy="9" r="0.7"/>
  </g>
</svg>
